<svg width="24" height="24" viewBox="0 0 24 24" fill="none" xmlns="http://www.w3.org/2000/svg">
<g id="fi-rr-arrow-small-right 1">
<g id="Group">
<path id="Vector" d="M13.1211 6.29249C12.9336 6.47983 12.8283 6.73388 12.8283 6.99878C12.8283 7.26368 12.9336 7.51773 13.1211 7.70507L16.4131 10.9948L6.00001 11.0018C5.73479 11.0018 5.48043 11.107 5.2929 11.2944C5.10536 11.4817 5 11.7358 5 12.0007C5 12.2657 5.10536 12.5198 5.2929 12.7071C5.48043 12.8945 5.73479 12.9997 6.00001 12.9997L16.4141 12.9927L13.1211 16.2824C13.0256 16.3746 12.9494 16.4848 12.897 16.6067C12.8446 16.7286 12.817 16.8597 12.8158 16.9923C12.8147 17.125 12.84 17.2565 12.8903 17.3793C12.9405 17.5021 13.0148 17.6136 13.1087 17.7074C13.2026 17.8012 13.3142 17.8754 13.4371 17.9256C13.56 17.9758 13.6917 18.0011 13.8245 18C13.9573 17.9988 14.0885 17.9712 14.2105 17.9189C14.3325 17.8665 14.4428 17.7904 14.5351 17.695L18.1211 14.1136C18.3998 13.8353 18.6208 13.5049 18.7716 13.1413C18.9224 12.7776 19 12.3879 19 11.9943C19 11.6006 18.9224 11.2109 18.7716 10.8472C18.6208 10.4836 18.3998 10.1532 18.1211 9.87489L14.5351 6.29249C14.3476 6.10521 14.0933 6 13.8281 6C13.5629 6 13.3086 6.10521 13.1211 6.29249Z" fill="#3D3D3F"/>
</g>
</g>
</svg>
