<svg width="249" height="248" viewBox="0 0 249 248" fill="none" xmlns="http://www.w3.org/2000/svg">
<g id="icon" filter="url(#filter0_d_3703_91)">
<g id="Group" filter="url(#filter1_d_3703_91)">
<path id="Ellipse 1" d="M124.5 124C138.031 124 149 113.255 149 100C149 86.7452 138.031 76 124.5 76C110.969 76 100 86.7452 100 100C100 113.255 110.969 124 124.5 124Z" fill="url(#paint0_linear_3703_91)"/>
</g>
<g id="Play">
<path id="Vector" d="M117 107.113V90.8864C117 90.7273 117.044 90.5712 117.128 90.4344C117.212 90.2975 117.333 90.185 117.478 90.1087C117.622 90.0323 117.786 89.995 117.951 90.0005C118.116 90.0061 118.276 90.0544 118.415 90.1403L131.575 98.2539C131.705 98.3339 131.813 98.4442 131.887 98.5747C131.961 98.7052 132 98.8517 132 99.0005C132 99.1493 131.961 99.2957 131.887 99.4262C131.813 99.5567 131.705 99.6671 131.575 99.7471L118.415 107.86C118.276 107.946 118.116 107.994 117.951 107.999C117.786 108.005 117.622 107.968 117.477 107.891C117.332 107.815 117.212 107.702 117.128 107.565C117.044 107.428 117 107.272 117 107.113Z" fill="#FD695A"/>
<path id="Vector_2" d="M117.726 107.751V91.2138C117.725 91.1937 117.725 91.1735 117.726 91.1534C117.726 91.2277 117.726 91.1652 117.726 91.1444C117.738 91.1028 117.75 91.0612 117.762 91.0216C117.738 91.0909 117.755 91.0335 117.762 91.0146C117.769 90.9958 117.806 90.9582 117.824 90.9304C117.841 90.9027 117.848 90.9007 117.857 90.8888C117.814 90.9443 117.842 90.9047 117.855 90.8888C117.888 90.8611 117.92 90.8303 117.956 90.8006C117.898 90.8492 117.941 90.8095 117.961 90.7986L118.02 90.763L118.072 90.7382C118.142 90.7005 118.018 90.7521 118.088 90.7313C118.133 90.7194 118.178 90.7055 118.223 90.6956C118.175 90.6887 118.306 90.6748 118.223 90.6956C118.247 90.6968 118.27 90.6968 118.293 90.6956C118.312 90.6944 118.332 90.6944 118.351 90.6956C118.351 90.6956 118.445 90.7114 118.39 90.6956L118.431 90.7075C118.46 90.7147 118.488 90.7233 118.516 90.7332C118.528 90.7332 118.578 90.7521 118.516 90.7332L118.598 90.7749C118.606 90.7794 118.614 90.7843 118.622 90.7897H118.629L118.732 90.8521L119.272 91.1841L121.381 92.482C122.372 93.0957 123.363 93.707 124.352 94.3161C125.401 94.9614 126.452 95.6078 127.503 96.2551L130.216 97.9237C130.754 98.2539 131.293 98.5842 131.832 98.9145C131.886 98.9472 131.935 98.9799 131.989 99.0136L132.025 99.0344L132.078 99.069C132.023 99.0274 132.078 99.069 132.087 99.0809C132.097 99.0928 132.136 99.1295 132.16 99.1533C132.183 99.177 132.188 99.2048 132.16 99.1533C132.169 99.1691 132.181 99.183 132.19 99.1998C132.2 99.2167 132.217 99.2484 132.232 99.2741C132.246 99.2999 132.248 99.3326 132.232 99.2672C132.246 99.3118 132.26 99.3534 132.273 99.4C132.277 99.4176 132.28 99.4355 132.282 99.4535C132.268 99.3653 132.282 99.4535 132.282 99.4693C132.282 99.4852 132.27 99.6318 132.282 99.5387C132.276 99.5837 132.265 99.6281 132.251 99.6715C132.246 99.6891 132.24 99.7064 132.232 99.723C132.239 99.7091 132.255 99.6507 132.232 99.723C132.221 99.7439 132.209 99.7641 132.196 99.7834C132.188 99.7924 132.133 99.8667 132.183 99.8042C132.151 99.8406 132.116 99.8753 132.08 99.9083C132.027 99.9499 132.071 99.9172 132.08 99.9083C132.061 99.9221 132.049 99.9291 132.027 99.943C132.017 99.95 132.007 99.9563 131.996 99.9618L130.76 100.719L128.273 102.257C127.233 102.895 126.194 103.535 125.156 104.175L122.091 106.062C121.292 106.554 120.494 107.046 119.695 107.537C119.338 107.758 118.984 107.981 118.624 108.197C118.585 108.219 118.547 108.241 118.505 108.262C118.522 108.255 118.566 108.232 118.505 108.262L118.433 108.283C118.41 108.29 118.385 108.292 118.361 108.299C118.426 108.28 118.397 108.299 118.371 108.299C118.323 108.301 118.276 108.301 118.228 108.299C118.16 108.299 118.228 108.299 118.241 108.299C118.214 108.299 118.185 108.29 118.158 108.283C118.132 108.276 118.03 108.238 118.072 108.255C118.114 108.272 118.009 108.222 117.99 108.21C117.97 108.199 117.95 108.183 117.927 108.174C117.88 108.153 117.982 108.227 117.927 108.174C117.893 108.141 117.859 108.111 117.824 108.075C117.874 108.128 117.815 108.059 117.797 108.035C117.78 108.011 117.77 107.986 117.756 107.963C117.741 107.939 117.741 107.907 117.756 107.97C117.751 107.92 117.733 107.876 117.721 107.832C117.721 107.769 117.721 107.813 117.721 107.832C117.725 107.804 117.725 107.776 117.721 107.749C117.72 107.656 117.681 107.568 117.614 107.503C117.546 107.438 117.454 107.401 117.359 107.4C117.263 107.403 117.173 107.441 117.106 107.506C117.039 107.571 117.002 107.659 117 107.751C117 107.974 117.063 108.193 117.18 108.385C117.298 108.577 117.467 108.735 117.67 108.844C117.873 108.952 118.102 109.005 118.334 109C118.566 108.994 118.792 108.928 118.988 108.81C119.078 108.756 119.166 108.701 119.254 108.645L121.015 107.562L123.845 105.821C124.914 105.16 125.984 104.501 127.054 103.844L129.979 102.044C130.635 101.64 131.292 101.235 131.951 100.83L132.362 100.577C132.495 100.497 132.614 100.397 132.712 100.28C132.866 100.094 132.963 99.8702 132.991 99.6341C133.02 99.3979 132.978 99.1588 132.872 98.9442C132.729 98.6933 132.515 98.487 132.254 98.3497L131.671 97.993L129.465 96.6356L126.422 94.76C125.357 94.1053 124.291 93.4498 123.226 92.7932L120.554 91.1494L119.094 90.2497C118.938 90.1428 118.76 90.0678 118.572 90.0294C118.384 89.9911 118.19 89.9902 118.002 90.0268C117.712 90.0963 117.454 90.2587 117.272 90.4873C117.09 90.7159 116.994 90.9972 117 91.2851V107.756C117.001 107.848 117.04 107.936 117.108 108.001C117.175 108.066 117.267 108.103 117.363 108.104C117.459 108.101 117.55 108.062 117.617 107.997C117.685 107.931 117.723 107.843 117.726 107.751Z" fill="#FD695A"/>
</g>
</g>
<defs>
<filter id="filter0_d_3703_91" x="78" y="58" width="93" height="92" filterUnits="userSpaceOnUse" color-interpolation-filters="sRGB">
<feFlood flood-opacity="0" result="BackgroundImageFix"/>
<feColorMatrix in="SourceAlpha" type="matrix" values="0 0 0 0 0 0 0 0 0 0 0 0 0 0 0 0 0 0 127 0" result="hardAlpha"/>
<feOffset dy="4"/>
<feGaussianBlur stdDeviation="11"/>
<feComposite in2="hardAlpha" operator="out"/>
<feColorMatrix type="matrix" values="0 0 0 0 0 0 0 0 0 0 0 0 0 0 0 0 0 0 0.05 0"/>
<feBlend mode="normal" in2="BackgroundImageFix" result="effect1_dropShadow_3703_91"/>
<feBlend mode="normal" in="SourceGraphic" in2="effect1_dropShadow_3703_91" result="shape"/>
</filter>
<filter id="filter1_d_3703_91" x="0" y="0" width="249" height="248" filterUnits="userSpaceOnUse" color-interpolation-filters="sRGB">
<feFlood flood-opacity="0" result="BackgroundImageFix"/>
<feColorMatrix in="SourceAlpha" type="matrix" values="0 0 0 0 0 0 0 0 0 0 0 0 0 0 0 0 0 0 127 0" result="hardAlpha"/>
<feOffset dy="24"/>
<feGaussianBlur stdDeviation="50"/>
<feColorMatrix type="matrix" values="0 0 0 0 0 0 0 0 0 0 0 0 0 0 0 0 0 0 0.149 0"/>
<feBlend mode="normal" in2="BackgroundImageFix" result="effect1_dropShadow_3703_91"/>
<feBlend mode="normal" in="SourceGraphic" in2="effect1_dropShadow_3703_91" result="shape"/>
</filter>
<linearGradient id="paint0_linear_3703_91" x1="100" y1="77.4694" x2="157.228" y2="94.6775" gradientUnits="userSpaceOnUse">
<stop stop-color="white" stop-opacity="0.57"/>
<stop offset="0.9999" stop-color="white" stop-opacity="0.28"/>
<stop offset="1" stop-color="white" stop-opacity="0.69"/>
</linearGradient>
</defs>
</svg>
