<svg width="35" height="34" viewBox="0 0 35 34" fill="none" xmlns="http://www.w3.org/2000/svg">
<g id="Logo">
<path id="Vector" d="M31.6252 1H27.3748C26.0632 1 25 2.06318 25 3.37475V7.62518C25 8.93675 26.0632 10 27.3748 10H31.6252C32.9368 10 34 8.93675 34 7.62518V3.37475C34 2.06318 32.9368 1 31.6252 1Z" fill="#FD695A"/>
<path id="Vector_2" d="M14.5029 10.0543H18.329C19.9122 10.1402 21.4183 10.7356 22.6014 11.7435L22.7449 11.8957C23.8063 13.0218 24.4309 14.4613 24.5145 15.9739V19.6109C24.5145 20.2445 24.7782 20.8522 25.2475 21.3002C25.7169 21.7483 26.3536 22 27.0174 22H31.4971C32.1609 22 32.7975 21.7483 33.2669 21.3002C33.7363 20.8522 34 20.2445 34 19.6109V15.3348C34 14.7011 33.7363 14.0935 33.2669 13.6455C32.7975 13.1974 32.1609 12.9457 31.4971 12.9457H27.6869C26.1023 12.8658 24.5942 12.2696 23.4145 11.2565L23.2551 11.1196C22.1971 9.99146 21.573 8.55316 21.4855 7.04129V3.38912C21.4855 2.75553 21.2218 2.14782 20.7524 1.69977C20.283 1.25173 19.6464 1 18.9826 1H14.5029C13.8391 1 13.2025 1.25173 12.7331 1.69977C12.2637 2.14782 12 2.75553 12 3.38912V7.66526C12 8.29885 12.2637 8.9065 12.7331 9.35455C13.2025 9.80259 13.8391 10.0543 14.5029 10.0543Z" fill="#FD695A"/>
<path id="Vector_3" d="M32.4886 24.7975H28.6739C27.086 24.6994 25.5814 24.0722 24.4141 23.0218L23.985 22.605C22.9269 21.4623 22.3041 20.0017 22.2207 18.4668V14.7611C22.2165 14.1195 21.9523 13.5052 21.4852 13.0514C21.0181 12.5977 20.3858 12.341 19.7252 12.337H15.9105C14.3356 12.2726 12.8316 11.6838 11.6508 10.6694L11.2216 10.2525C10.1634 9.10989 9.54072 7.64925 9.45729 6.11442V2.4242C9.45729 1.78126 9.19436 1.16464 8.72643 0.709989C8.25843 0.255409 7.62371 0 6.96186 0H2.49543C1.83364 0 1.19886 0.255409 0.730929 0.709989C0.262929 1.16464 0 1.78126 0 2.4242V6.76294C0 7.40588 0.262929 8.0225 0.730929 8.47709C1.19886 8.93173 1.83364 9.18714 2.49543 9.18714H6.29428C7.89836 9.25841 9.42693 9.86979 10.6176 10.9164L11.0468 11.3334C12.1016 12.478 12.7239 13.9374 12.8111 15.4714V19.1772C12.8152 19.8188 13.0795 20.433 13.5466 20.8867C14.0136 21.3405 14.646 21.5972 15.3065 21.6013H19.1212C20.6837 21.6963 22.1676 22.3001 23.3334 23.3152L23.7625 23.7321C24.8174 24.8767 25.4396 26.3362 25.5268 27.8701V31.5759C25.5309 32.2176 25.7952 32.8318 26.2623 33.2855C26.7294 33.7393 27.3617 33.9959 28.0222 34H32.5045C33.1651 33.9959 33.7974 33.7393 34.2645 33.2855C34.7316 32.8318 34.9959 32.2176 35 31.5759V27.2216C34.9958 26.5773 34.7294 25.9607 34.2589 25.5065C33.7884 25.0524 33.1519 24.7974 32.4886 24.7975Z" fill="#FD695A"/>
<path id="Vector_4" d="M7.36135 24H2.63864C1.18136 24 0 25.0632 0 26.3748V30.6252C0 31.9368 1.18136 33 2.63864 33H7.36135C8.81864 33 10 31.9368 10 30.6252V26.3748C10 25.0632 8.81864 24 7.36135 24Z" fill="#FD695A"/>
<path id="Vector_5" d="M19.4971 23.9456H15.6869C14.1023 23.8658 12.5942 23.2696 11.4145 22.2565L11.2551 22.1196C10.1903 20.9835 9.56581 19.5333 9.48548 18.0109V14.3587C9.4776 13.7433 9.22126 13.1546 8.76984 12.7152C8.31841 12.2758 7.70674 12.0196 7.06228 12H2.50289C1.83906 12 1.20248 12.2517 0.733095 12.6998C0.263714 13.1478 0 13.7555 0 14.3891V18.6652C0 19.2989 0.263714 19.9065 0.733095 20.3546C1.20248 20.8027 1.83906 21.0543 2.50289 21.0543H6.32897C7.91219 21.1402 9.41827 21.7356 10.6014 22.7435L10.7449 22.8956C11.8063 24.0218 12.4309 25.4613 12.5145 26.9739V30.6108C12.5145 30.9259 12.5797 31.2378 12.7065 31.5286C12.8333 31.8195 13.0191 32.0835 13.2532 32.3056C13.4873 32.5277 13.7651 32.7033 14.0706 32.8225C14.3761 32.9416 14.7033 33.002 15.0333 33H19.4971C20.1609 33 20.7975 32.7483 21.2669 32.3002C21.7363 31.8522 22 31.2445 22 30.6108V26.3347C22 25.7012 21.7363 25.0934 21.2669 24.6454C20.7975 24.1974 20.1609 23.9456 19.4971 23.9456Z" fill="#FD695A"/>
</g>
</svg>
