<svg width="16" height="17" viewBox="0 0 16 17" fill="none" xmlns="http://www.w3.org/2000/svg">
<g id="pointinghand" clip-path="url(#clip0_3703_39)">
<g id="bundle os x cursors">
<g id="Made with &#240;&#159;&#146;&#149;by Azendoo design team   @azendoo">
<g id="pointinghand_2">
<path id="cursor" fill-rule="evenodd" clip-rule="evenodd" d="M4.21081 13.2519C3.8409 13.0037 3.30329 12.4232 2.46954 11.779C1.99728 11.4149 0.915272 10.7936 0.533982 10.4218C0.200833 10.0919 0.166519 9.90557 0.111124 9.55848C0.012306 8.94107 0.465065 8.28329 1.12215 8.13203C1.6183 8.01696 2.12823 8.20179 2.59171 8.38246C2.87127 8.49099 3.25638 8.75482 3.48403 8.90037C3.69336 9.03341 3.75448 9.09688 3.98468 9.26023C4.28907 9.47646 4.40092 9.59651 4.21912 9.3072C4.00629 8.86461 3.64771 8.1072 3.26991 7.45772C2.98285 6.96537 2.92772 6.89161 2.68533 6.52105C2.42816 6.12643 2.27063 5.84247 2.01258 5.41914C1.83153 5.11922 1.48077 4.50005 1.32422 4.13809C1.10927 3.64339 0.817166 2.81715 1.02143 2.32424C1.18153 1.93827 1.73835 1.6517 2.15986 1.7159C2.71172 1.79971 3.20219 2.40636 3.4136 2.64331C3.79359 3.06939 4.11373 3.60143 4.47341 4.32015C4.93104 5.23503 5.63524 6.48179 5.73369 6.76064C5.64664 6.40755 5.33108 5.70826 5.28559 5.35682C5.24432 5.03815 5.38437 4.60502 5.66811 4.40558C5.90834 4.23725 6.21003 4.10432 6.50186 4.06996C6.81129 4.03283 7.18388 4.1403 7.36054 4.2998C7.88134 4.77203 8.26556 5.96416 8.25934 5.89581C8.22775 5.51693 7.96112 4.72258 8.05362 4.32398C8.11421 4.06137 8.383 3.753 8.54924 3.66223C8.80667 3.52233 9.13693 3.39538 9.44146 3.35575C9.68705 3.32442 10.0875 3.49716 10.214 3.60195C10.5182 3.85656 10.9215 4.72952 11.0569 5.03746C11.1126 5.16488 11.0094 4.64732 11.1108 4.25717C11.2982 3.53269 12.595 2.97085 13.0614 4.26706C13.2783 4.87191 13.2648 4.84536 13.3952 5.25751C13.5483 5.74178 13.6293 6.03682 13.7142 6.39583C13.8039 6.78013 13.9919 7.65358 14.0057 8.10263C14.015 8.41125 13.9511 9.13379 13.8106 9.60125C13.8106 9.60125 13.1843 11.1052 13.2425 11.6689C13.2995 12.2319 13.3369 12.2236 13.4337 12.6044C13.5303 12.9844 13.8192 13.4306 13.8192 13.4306C13.8192 13.4306 13.1057 13.7767 12.6844 13.8461C12.3029 13.9083 11.6232 13.3297 11.4367 13.1455C11.1799 12.8916 10.858 13.0645 10.797 13.3355C10.7017 13.764 10.4561 14.5577 10.1514 14.704C9.55643 14.9899 8.25452 15.3701 7.24439 15.6963C7.24439 15.6963 7.11655 14.6919 6.63142 14.4947C6.27165 14.3467 5.62891 14.0177 5.25576 13.8566L4.21081 13.2519Z" fill="white"/>
<path id="cursor_2" fill-rule="evenodd" clip-rule="evenodd" d="M4.21081 13.2519C3.8409 13.0037 3.30329 12.4232 2.46954 11.779C1.99728 11.4149 0.915273 10.7936 0.533982 10.4218C0.200833 10.0919 0.166519 9.90557 0.111124 9.55848C0.012306 8.94107 0.465065 8.28329 1.12215 8.13203C1.6183 8.01696 2.12823 8.20179 2.59171 8.38246C2.87127 8.49099 3.25638 8.75482 3.48403 8.90037C3.69336 9.03341 3.75448 9.09688 3.98468 9.26023C4.28907 9.47646 4.40092 9.59651 4.21912 9.3072C4.00629 8.86461 3.64771 8.1072 3.26991 7.45772C2.98285 6.96537 2.92772 6.89161 2.68534 6.52105C2.42816 6.12643 2.27063 5.84247 2.01258 5.41914C1.83153 5.11922 1.48077 4.50005 1.32422 4.13809C1.10927 3.64339 0.817166 2.81715 1.02143 2.32424C1.18153 1.93827 1.73836 1.6517 2.15986 1.7159C2.71172 1.79971 3.20219 2.40636 3.4136 2.64331C3.79359 3.06939 4.11373 3.60143 4.47341 4.32015C4.93104 5.23503 5.63524 6.48179 5.73369 6.76064C5.64664 6.40755 5.33108 5.70826 5.28559 5.35682C5.24432 5.03815 5.38437 4.60502 5.66811 4.40558C5.90834 4.23725 6.21003 4.10432 6.50186 4.06996C6.81129 4.03283 7.18388 4.1403 7.36054 4.2998C7.88134 4.77203 8.26556 5.96416 8.25934 5.89581C8.22775 5.51693 7.96112 4.72258 8.05362 4.32398C8.11421 4.06137 8.38299 3.753 8.54924 3.66223C8.80667 3.52233 9.13693 3.39538 9.44146 3.35575C9.68705 3.32442 10.0875 3.49716 10.214 3.60195C10.5182 3.85656 10.9215 4.72952 11.0569 5.03746C11.1126 5.16488 11.0094 4.64732 11.1108 4.25717C11.2982 3.53269 12.595 2.97085 13.0614 4.26706C13.2783 4.87191 13.2648 4.84536 13.3952 5.25751C13.5483 5.74178 13.6293 6.03682 13.7142 6.39583C13.8039 6.78013 13.9919 7.65358 14.0057 8.10263C14.015 8.41125 13.9511 9.13379 13.8106 9.60125C13.8106 9.60125 13.1843 11.1052 13.2425 11.6689C13.2995 12.2319 13.3369 12.2236 13.4337 12.6044C13.5303 12.9844 13.8192 13.4306 13.8192 13.4306C13.8192 13.4306 13.1057 13.7767 12.6844 13.8461C12.3029 13.9083 11.6232 13.3297 11.4367 13.1455C11.1799 12.8916 10.858 13.0645 10.797 13.3355C10.7017 13.764 10.4561 14.5577 10.1514 14.704C9.55643 14.9899 8.25452 15.3701 7.24439 15.6963C7.24439 15.6963 7.11655 14.6919 6.63142 14.4947C6.27165 14.3467 5.62891 14.0177 5.25576 13.8566L4.21081 13.2519Z" stroke="#4C4C4F" stroke-width="0.75" stroke-linecap="round" stroke-linejoin="round"/>
<path id="cursor_3" d="M11.9047 10.8603L11 8" stroke="#4C4C4F" stroke-width="0.75" stroke-linecap="round"/>
<path id="cursor_4" d="M9.91951 10.8554L9 8" stroke="#4C4C4F" stroke-width="0.75" stroke-linecap="round"/>
<path id="cursor_5" d="M7 9L7.92415 11.8538" stroke="#4C4C4F" stroke-width="0.75" stroke-linecap="round"/>
</g>
</g>
</g>
</g>
<defs>
<clipPath id="clip0_3703_39">
<rect width="16" height="17" fill="white"/>
</clipPath>
</defs>
</svg>
