<svg width="71" height="71" viewBox="0 0 71 71" fill="none" xmlns="http://www.w3.org/2000/svg">
<g id="Icon">
<circle id="Ellipse 15" cx="35.5" cy="35.5" r="35.5" fill="#BC5C56" fill-opacity="0.06"/>
<g id="Group">
<g id="Group_2">
<path id="Vector" d="M55 34.9975C54.9991 34.5918 54.7884 34.2154 54.443 34.0024L50.3779 31.4965L54.4473 28.9636C54.7905 28.75 54.9994 28.3746 55 27.9705C55.0006 27.5663 54.7929 27.1903 54.4503 26.9757L35.6222 15.1788C35.2417 14.9404 34.7583 14.9404 34.3778 15.1788L15.5497 26.9757C15.2072 27.1903 14.9995 27.5663 15 27.9705C15.0006 28.3747 15.2095 28.7501 15.5527 28.9636L19.5942 31.4791L15.5509 34.0063C15.2079 34.2207 14.9997 34.5967 15.0001 35.0012C15.0005 35.4056 15.2094 35.7812 15.5527 35.995L19.5943 38.5105L15.5509 41.0376C15.2084 41.2516 15.0003 41.6268 15.0001 42.0307C14.9998 42.4345 15.2076 42.81 15.5498 43.0243L34.3779 54.8212C34.5682 54.9404 34.7841 55 35 55C35.216 55 35.432 54.9404 35.6222 54.8212L54.4503 43.0243C54.7936 42.8093 55.0015 42.4321 55 42.027C54.9985 41.6219 54.7879 41.2463 54.443 41.0337L50.3779 38.5278L54.4473 35.9949C54.7918 35.7805 55.0009 35.4032 55 34.9975ZM18.3844 27.9656L35 17.5549L51.6157 27.9656C51.456 28.0649 35.4762 38.0108 35 38.3073L18.3844 27.9656ZM51.608 42.0394L35 52.4452L18.3811 42.0326L21.8099 39.8895L34.3808 47.7137C34.5704 47.8317 34.7852 47.8907 35 47.8907C35.2149 47.8907 35.4297 47.8317 35.6193 47.7137L48.1555 39.9111L51.608 42.0394ZM35 45.3385L18.3863 34.998L21.8099 32.8583L34.3808 40.6825C34.5704 40.8004 34.7852 40.8594 35 40.8594C35.2149 40.8594 35.4297 40.8004 35.6193 40.6825L48.1555 32.8799L51.6027 35.0048C51.5075 35.0641 35.4399 45.0646 35 45.3385Z" fill="#FD695A" stroke="#FD695A" stroke-width="0.5"/>
</g>
</g>
</g>
</svg>
