<svg width="71" height="71" viewBox="0 0 71 71" fill="none" xmlns="http://www.w3.org/2000/svg">
<g id="Icon">
<circle id="Ellipse 19" cx="35.5" cy="35.5" r="35.5" fill="#68CDFD" fill-opacity="0.08"/>
<g id="Web icon">
<path id="Vector" d="M28.0543 39.1069L28.0542 39.1068C27.8656 38.9603 27.75 38.7399 27.75 38.4998C27.75 38.2597 27.8662 38.0395 28.054 37.8933L28.0543 37.8931L31.8738 34.9309L31.874 34.9308L32.0272 35.1284L28.0543 39.1069ZM28.0543 39.1069L31.8739 42.0691C31.874 42.0691 31.874 42.0691 31.874 42.0692C32.032 42.1917 32.2229 42.25 32.4093 42.25C32.6384 42.25 32.873 42.1621 33.0419 41.9814L33.0419 41.9814M28.0543 39.1069L33.0419 41.9814M33.0419 41.9814C33.3562 41.6451 33.3071 41.1357 32.9456 40.8553L29.9086 38.4998L32.9454 36.1445M33.0419 41.9814L32.9454 36.1445M32.9454 36.1445L32.9456 36.1443L32.9454 36.1445Z" fill="#53C8FF" stroke="#53C8FF" stroke-width="0.5"/>
<path id="Vector_2" d="M42.0913 38.4998L39.0543 40.8553L39.0542 40.8554C38.6934 41.1356 38.6435 41.6449 38.9582 41.9813C39.1269 42.1622 39.3616 42.25 39.5906 42.25C39.777 42.25 39.9679 42.1917 40.1259 42.0692C40.1259 42.0691 40.1259 42.0691 40.1259 42.0691L43.9457 39.1069L43.9458 39.1068C44.1344 38.9603 44.25 38.7399 44.25 38.4998C44.25 38.26 44.1344 38.0396 43.9458 37.8932L43.9457 37.8931L40.1261 34.931C40.1261 34.931 40.1261 34.9309 40.126 34.9309L40.1259 34.9308L39.9727 35.1284M42.0913 38.4998L42.2953 38.3416L39.2075 35.9468C38.9594 35.7545 38.9295 35.4152 39.1409 35.189C39.3521 34.9631 39.725 34.9358 39.9727 35.1284M42.0913 38.4998L39.0543 36.1444M42.0913 38.4998L39.0543 36.1444M39.9727 35.1284L43.7925 38.0906L39.9727 35.1284ZM39.0543 36.1444L39.2074 35.9469L39.0543 36.1443C38.6931 35.8643 38.6437 35.3548 38.9583 35.0183L39.1409 35.1889L38.9583 35.0182L39.0543 36.1444Z" fill="#53C8FF" stroke="#53C8FF" stroke-width="0.5"/>
<path id="Vector_3" d="M34.3363 44.2307L34.3371 44.2309C34.3898 44.2434 34.4436 44.25 34.498 44.25C34.8686 44.25 35.1623 43.9599 35.2297 43.5949L35.2297 43.5948L37.2351 32.7299L37.2351 32.7299C37.3109 32.3189 37.0861 31.8708 36.6637 31.7692L36.6636 31.7692C36.2264 31.6642 35.8471 31.9889 35.7703 32.4051L35.7703 32.4052L33.7649 43.27C33.7649 43.27 33.7649 43.27 33.7649 43.27C33.6891 43.6807 33.9139 44.1291 34.3363 44.2307Z" fill="#53C8FF" stroke="#53C8FF" stroke-width="0.5"/>
<path id="Vector_4" d="M22.7689 50.25H49.2311C51.4472 50.25 53.25 48.4474 53.25 46.2308V23.7692C53.25 21.5529 51.4472 19.75 49.2311 19.75H22.7689C20.5528 19.75 18.75 21.5529 18.75 23.7692V46.2308C18.75 48.4474 20.5528 50.25 22.7689 50.25ZM20.3726 23.7692C20.3726 22.4481 21.4479 21.3727 22.7689 21.3727H49.2311C50.5521 21.3727 51.6274 22.4481 51.6274 23.7692V46.2308C51.6274 47.5519 50.5521 48.6273 49.2311 48.6273H22.7689C21.4479 48.6273 20.3726 47.5519 20.3726 46.2308V23.7692Z" fill="#53C8FF" stroke="#53C8FF" stroke-width="0.5"/>
<path id="Vector_5" d="M19.5613 29.25H52.4387C52.8589 29.25 53.25 28.9407 53.25 28.5C53.25 28.0597 52.859 27.75 52.4387 27.75H19.5613C19.141 27.75 18.75 28.0597 18.75 28.5C18.75 28.9407 19.1411 29.25 19.5613 29.25Z" fill="#53C8FF" stroke="#53C8FF" stroke-width="0.5"/>
<path id="Vector_6" d="M30 27C28.8975 27 28 26.1025 28 25C28 23.8972 28.8975 23 30 23C31.1028 23 32 23.8972 32 25C32 26.1025 31.1028 27 30 27ZM30 24.264C29.5944 24.264 29.264 24.5941 29.264 25C29.264 25.4059 29.5944 25.736 30 25.736C30.4059 25.736 30.736 25.4059 30.736 25C30.736 24.5941 30.4059 24.264 30 24.264Z" fill="#53C8FF"/>
<path id="Vector_7" d="M25 27C23.8972 27 23 26.1028 23 25C23 23.8972 23.8972 23 25 23C26.1028 23 27 23.8972 27 25C27 26.1028 26.1028 27 25 27ZM25 24.264C24.5944 24.264 24.264 24.5944 24.264 25C24.264 25.4059 24.5944 25.736 25 25.736C25.4059 25.736 25.736 25.4059 25.736 25C25.736 24.5944 25.4059 24.264 25 24.264Z" fill="#53C8FF"/>
<path id="Vector_8" d="M35.9998 27C34.8973 27 34 26.1027 34 24.9998C34 23.8973 34.8973 23 35.9998 23C37.1027 23 38 23.8973 38 24.9998C38 26.1027 37.1027 27 35.9998 27ZM35.9998 24.2637C35.5942 24.2637 35.2641 24.5939 35.2641 24.9998C35.2641 25.4058 35.5942 25.7359 35.9998 25.7359C36.4058 25.7359 36.7359 25.4058 36.7359 24.9998C36.7359 24.5939 36.4058 24.2637 35.9998 24.2637Z" fill="#53C8FF"/>
</g>
</g>
</svg>
